<?xml version="1.0" standalone="no"?>
<!DOCTYPE svg PUBLIC "-//W3C//DTD SVG 20010904//EN"
 "http://www.w3.org/TR/2001/REC-SVG-20010904/DTD/svg10.dtd">
<svg version="1.0" xmlns="http://www.w3.org/2000/svg"
 width="256.000000pt" height="256.000000pt" viewBox="0 0 256.000000 256.000000"
 preserveAspectRatio="xMidYMid meet">
<metadata>
Created by potrace 1.14, written by Peter Selinger 2001-2017
</metadata>
<g transform="translate(0.000000,256.000000) scale(0.100000,-0.100000)"
fill="#000000" stroke="none">
<path d="M1140 2554 c-27 -4 -135 -24 -160 -29 -8 -2 -53 -15 -100 -30 -374
-120 -692 -435 -814 -810 -46 -143 -59 -221 -61 -386 -3 -228 34 -397 130
-589 179 -357 509 -608 899 -686 108 -21 338 -26 445 -8 407 66 757 321 941
684 39 78 95 228 106 283 32 167 41 352 22 474 -42 279 -170 533 -366 728
-168 169 -408 301 -622 344 -30 6 -68 13 -85 17 -36 7 -299 13 -335 8z m-19
-341 c0 -10 1 -199 1 -421 l1 -403 -141 -143 c-116 -116 -140 -146 -136 -163
8 -29 -51 -86 -81 -79 -14 4 -51 -26 -152 -126 -73 -73 -134 -130 -136 -127
-19 20 -65 105 -87 159 -133 324 -82 694 135 968 129 163 300 276 505 333 83
23 90 23 91 2z m374 7 c79 -20 121 -35 178 -62 31 -16 60 -28 63 -28 11 0 151
-100 202 -144 32 -27 59 -43 68 -39 22 8 62 -44 61 -81 0 -20 13 -52 37 -88
143 -224 177 -526 90 -805 -19 -60 -96 -215 -110 -220 -5 -2 -153 141 -328
316 l-319 319 1 403 c0 222 1 412 1 422 1 20 3 20 56 7z m-372 -1590 c0 -160
-2 -293 -5 -296 -3 -3 -26 0 -49 6 -24 7 -51 14 -60 15 -34 7 -166 64 -219 95
-107 62 -118 37 117 272 114 114 209 205 212 203 2 -3 4 -135 4 -295z m556 68
l184 -187 -69 -44 c-38 -25 -101 -58 -139 -74 -76 -32 -204 -68 -212 -59 -4 4
-7 497 -4 579 1 17 4 16 29 -5 15 -13 110 -107 211 -210z"/>
</g>
</svg>
